# xmcd
#
# Track frame offsets:
#	150
#	3333
#	21098
#	34289
#	41938
#	59531
#	77239
#	90352
#	105671
#	114634
#	137677
#	152005
#	166796
#
# Disc length: 2296 seconds
#
# Revision: 1
# Processed by: cddbd v1.5.2PL0 Copyright (c) Steve Scherf et al.
# Submitted via: audiograbber 1.83.01
#
DISCID=9f08f60d
DTITLE=Billy Jenkins - When The Crowds Have Gone
DYEAR=2006
DGENRE=Blues
TTITLE0=In My Bones
TTITLE1=I Like Rain
TTITLE2=Get The Poison Out
TTITLE3=If I Were A Lollipop Man
TTITLE4=The Tide Is Out
TTITLE5=Blues Is Calling Me
TTITLE6=When Money's Really Tight
TTITLE7=Come Round And See Me
TTITLE8=Sitting On The Dock Of Ebay
TTITLE9=Trouble In Mind
TTITLE10=Everything's Too Fast
TTITLE11=This Room
TTITLE12=Cry Your Eyes Till They're Red
EXTD=
EXTT0=
EXTT1=
EXTT2=
EXTT3=
EXTT4=
EXTT5=
EXTT6=
EXTT7=
EXTT8=
EXTT9=
EXTT10=
EXTT11=
EXTT12=
PLAYORDER=
